<svg xmlns="http://www.w3.org/2000/svg" version="1.1" xmlns:xlink="http://www.w3.org/1999/xlink" xmlns:svgjs="http://svgjs.dev/svgjs" width="1000" height="262" viewBox="0 0 1000 262"><g transform="matrix(1,0,0,1,-0.6060606060606233,-0.5986536803206377)"><svg viewBox="0 0 396 104" data-background-color="#398378" preserveAspectRatio="xMidYMid meet" height="262" width="1000" xmlns="http://www.w3.org/2000/svg" xmlns:xlink="http://www.w3.org/1999/xlink"><g id="tight-bounds" transform="matrix(1,0,0,1,0.2400000000000091,0.23763352195933862)"><svg viewBox="0 0 395.52 103.52472684208422" height="103.52472684208422" width="395.52"><g><svg viewBox="0 0 533.5113249037677 139.64303746415098" height="103.52472684208422" width="395.52"><g transform="matrix(1,0,0,1,137.99132490376763,19.299435713207558)"><svg viewBox="0 0 395.52 101.04416603773586" height="101.04416603773586" width="395.52"><g id="textblocktransform"><svg viewBox="0 0 395.52 101.04416603773586" height="101.04416603773586" width="395.52" id="textblock"><g><svg viewBox="0 0 395.52 101.04416603773586" height="101.04416603773586" width="395.52"><g transform="matrix(1,0,0,1,0,0)"><svg width="395.52" viewBox="2.930000066757202 -33.77000045776367 133.97000122070312 34.22999954223633" height="101.04416603773586" data-palette-color="#ffffff"><path d="M27.68-14.59L17.8-14.59 17.8-16.76 30.06-16.76 30.06-1.59Q25.23 0.46 19.21 0.46L19.21 0.46Q11.35 0.46 7.14-3.98 2.93-8.42 2.93-16.58L2.93-16.58Q2.93-21.69 5.02-25.59 7.1-29.5 10.98-31.64 14.86-33.77 20.11-33.77 25.35-33.77 29.65-31.77L29.65-31.77 28.72-29.68Q24.37-31.7 19.74-31.7L19.74-31.7Q13.17-31.7 9.31-27.63 5.46-23.56 5.46-16.68L5.46-16.68Q5.46-9.2 9.11-5.4 12.77-1.59 19.89-1.59L19.89-1.59Q24.47-1.59 27.68-2.88L27.68-2.88 27.68-14.59ZM48.99-14.48L40.72-14.48 40.72 0 38.39 0 38.39-33.27 46.31-33.27Q52.47-33.27 55.44-30.99 58.42-28.72 58.42-24.09L58.42-24.09Q58.42-20.7 56.63-18.42 54.85-16.13 51.31-15.14L51.31-15.14 60.34 0 57.56 0 48.99-14.48ZM46.23-31.17L40.72-31.17 40.72-16.48 47.07-16.48Q51.34-16.48 53.62-18.38 55.91-20.27 55.91-23.99 55.91-27.7 53.64-29.44 51.36-31.17 46.23-31.17L46.23-31.17ZM79.18-1.72Q85.16-1.72 88.33-5.59 91.5-9.45 91.5-16.66 91.5-23.86 88.33-27.69 85.16-31.52 79.2-31.52 73.25-31.52 70.04-27.67 66.83-23.81 66.83-16.66 66.83-9.5 70.02-5.61 73.2-1.72 79.18-1.72ZM68.25-4.15L68.25-4.15Q64.3-8.75 64.3-16.7 64.3-24.65 68.3-29.21 72.29-33.77 79.24-33.77 86.19-33.77 90.11-29.2 94.03-24.62 94.03-16.67 94.03-8.72 90.07-4.13 86.12 0.46 79.18 0.46 72.24 0.46 68.25-4.15ZM134.57-33.27L136.9-33.27 127.72 0 125.8 0 118.5-25.66Q117.61-28.72 117.13-30.84L117.13-30.84Q116.8-28.99 116.17-26.54 115.54-24.09 108.76 0L108.76 0 106.82 0 97.67-33.27 100.09-33.27Q106.03-11.45 106.67-9L106.67-9Q107.53-5.69 107.88-3.69L107.88-3.69Q108.51-7.05 110.2-13.07L110.2-13.07 115.89-33.27 118.45-33.27 125.12-10.11Q126.31-6.07 126.79-3.64L126.79-3.64Q127.09-5.26 127.44-6.74 127.8-8.22 134.57-33.27L134.57-33.27Z" opacity="1" transform="matrix(1,0,0,1,0,0)" fill="#ffffff" class="wordmark-text-0" data-fill-palette-color="primary" id="text-0"></path></svg></g></svg></g></svg></g></svg></g><g><svg viewBox="0 0 114.13722236224311 139.64303746415098" height="139.64303746415098" width="114.13722236224311"><g><svg xmlns="http://www.w3.org/2000/svg" xmlns:xlink="http://www.w3.org/1999/xlink" version="1.1" x="8" y="0" viewBox="15.884222984313965 2.111948013305664 68.0902099609375 96.88804626464844" enable-background="new 0 0 100 100" xml:space="preserve" height="139.64303746415098" width="98.13722236224311" class="icon-icon-0" data-fill-palette-color="accent" id="icon-0"><g fill="#6ecda7" data-fill-palette-color="accent"><path fill="none" d="M20.5 33.8c0.2 4.1 1.4 7.1 3.7 9.1 2.7 2.4 6.4 2.8 8.5 2.8 0.4-3.4-0.2-6.2-1.9-8.1C28 34.6 23.3 34 20.5 33.8z"></path><path fill="none" d="M23.5 72.3c1.8 1.3 4.6 2.9 7.3 2.6 1.7-0.2 3.2-1 4.6-2.7-0.9-0.9-2.4-2-4.4-2.3C28.7 69.6 26.2 70.4 23.5 72.3z"></path><path fill="none" d="M64.7 56.5c2.6 0.9 4.9 0.8 6.9-0.3 3.7-1.9 6.1-6.8 7.3-10.3-3 0.1-8 0.7-11.1 3.6C65.9 51.3 64.9 53.6 64.7 56.5z"></path><path fill="none" d="M55.4 23.8c1-6.2-3.6-12.9-6.1-16.1-2.5 2.9-7 8.9-6.4 14.8 0.4 3.6 2.6 6.7 6.6 9.4C52.9 29.8 54.9 27.1 55.4 23.8z"></path><path fill="#6ecda7" d="M83.6 42.5c-0.4-0.5-0.9-0.8-1.6-0.9-0.5 0-11.1-1.1-17.4 4.7-2.9 2.6-4.4 6.2-4.5 10.6l-8.5 6.2V35.9c4.7-2.9 7.5-6.8 8.2-11.4C61.5 13.9 51.4 3.3 51 2.8c-0.9-0.9-2.3-0.9-3.2-0.1-0.4 0.4-10.6 9.8-9.5 20.3 0.5 5 3.5 9.3 8.8 12.8v21.4L37 47.2c0.8-5.2-0.2-9.4-2.9-12.5-5.4-6.1-15.6-5.4-16.1-5.4-1.1 0.1-2 1-2.1 2.2-0.2 6.6 1.5 11.6 5.2 14.9 4.4 3.9 10.1 4.1 12.6 3.9l13.4 13.4v6.3h-7.7c-1.2-1.4-3.7-3.8-7.6-4.4-4.2-0.7-8.7 1-13.4 5-0.5 0.4-0.8 1-0.8 1.6 0 0.6 0.2 1.2 0.6 1.7 0.2 0.2 5.6 5.7 11.9 5.7 0.3 0 0.7 0 1 0 3.2-0.3 6-2 8.2-5h7.7v14.7c-1.7 0.8-2.9 2.6-2.9 4.6 0 2.8 2.3 5.1 5.1 5.1 2.8 0 5.1-2.3 5.1-5.1 0-2-1.2-3.8-2.9-4.6V68.8l11.1-8.1c4 1.5 7.6 1.4 10.9-0.3 7.8-4 10.3-15.5 10.4-16C84.1 43.6 84 43 83.6 42.5zM32.7 45.8c-2.1 0-5.8-0.4-8.5-2.8-2.2-2-3.4-5.1-3.7-9.1 2.8 0.1 7.5 0.8 10.2 3.9C32.4 39.6 33.1 42.4 32.7 45.8zM30.8 74.9c-2.8 0.3-5.5-1.3-7.3-2.6 2.7-1.9 5.3-2.7 7.6-2.3 2 0.3 3.5 1.4 4.4 2.3C34 73.9 32.5 74.8 30.8 74.9zM42.9 22.6c-0.6-6 3.9-12 6.4-14.8 2.5 3.2 7 9.9 6.1 16.1-0.5 3.2-2.4 5.9-5.9 8.1C45.4 29.3 43.2 26.1 42.9 22.6zM71.6 56.3c-2 1-4.3 1.1-6.9 0.3 0.2-2.9 1.2-5.2 3-6.9 3.2-2.9 8.1-3.5 11.1-3.6C77.7 49.4 75.3 54.3 71.6 56.3z" data-fill-palette-color="accent"></path></g></svg></g></svg></g></svg></g><defs></defs></svg><rect width="395.52" height="103.52472684208422" fill="none" stroke="none" visibility="hidden"></rect></g></svg></g></svg>